           <svg
              class="categories-icon"
              width="247"
              height="180"
              viewBox="0 0 247 180"
              fill="none"
              xmlns="http://www.w3.org/2000/svg"
            >
              <path
                d="M176.57 76.549C176.801 78.8601 178.593 81.1791 180.063 82.853C182.436 85.5541 184.404 88.3685 187.572 90.201C190.925 92.1409 194.419 93.9038 197.891 95.6216C199.725 96.529 201.69 97.7358 203.673 98.2316"
                stroke="#FFEC99"
                stroke-width="8"
                stroke-linecap="round"
              />
              <path
                d="M205.119 98.5929C204.435 98.3443 204.041 97.5917 203.593 97.0671C201.355 94.4456 198.456 92.4603 195.622 90.5423C191.08 87.4682 186.955 84.4044 183.075 80.5241"
                stroke="#FFEC99"
                stroke-width="8"
                stroke-linecap="round"
              />
              <path
                d="M147.298 96.4247C145.56 95.9032 143.568 92.1434 142.781 90.8033C141.592 88.7793 140.619 86.4208 138.967 84.7201C137.702 83.4181 136.187 82.3331 135.192 80.7851C132.639 76.814 131.629 71.5787 129.752 67.2335C128.27 63.8049 128.505 59.9182 127.784 56.3119"
                stroke="#FFEC99"
                stroke-width="10"
                stroke-linecap="round"
              />
              <path
                d="M127.784 56.3119C131.235 58.0374 132.775 63.7621 134.73 66.8721C136.64 69.908 137.912 73.112 139.709 76.1876C141.799 79.7647 143.273 83.2836 146.214 86.3061C150.077 90.2767 154.52 95.3385 159.947 97.1474"
                stroke="#FFEC99"
                stroke-width="10"
                stroke-linecap="round"
              />
              <path
                d="M62.0136 100.761C63.1193 100.631 63.7779 99.4247 64.5834 98.7535C67.2013 96.5719 69.7556 94.3737 72.3128 92.1283C75.4003 89.4173 77.901 86.4101 80.7248 83.4151C84.6151 79.289 88.9583 75.9239 92.6904 71.6102C98.7312 64.6279 104.719 57.858 110.077 50.309C113.34 45.7106 115.943 40.4357 117.304 34.9907"
                stroke="#FFEC99"
                stroke-width="12"
                stroke-linecap="round"
              />
              <path
                d="M8.89127 100.4C10.4338 100.4 11.0806 99.584 12.505 99.0346C16.2182 97.6024 20.1541 97.386 23.9085 95.8625C32.5139 92.3704 41.0616 88.8434 49.004 83.9773C51.3299 82.5523 53.6078 81.1182 56.0107 79.8214C57.278 79.1375 58.934 78.5672 60.0461 77.6331C62.5713 75.5119 65.3339 73.5485 67.9963 71.57C71.1329 69.2392 74.3487 66.9467 77.5527 64.7039C80.07 62.9418 82.0977 60.8311 84.4189 58.8415"
                stroke="#FFEC99"
                stroke-width="7"
                stroke-linecap="round"
              />
              <path
                d="M146.576 101.484V120.637"
                stroke="#FFEC99"
                stroke-width="7"
                stroke-linecap="round"
              />
              <path
                d="M150.912 101.123C151.868 108.67 152.856 116.286 152.699 123.909C152.667 125.476 152.358 127.032 152.358 128.587"
                stroke="#FFEC99"
                stroke-width="7"
                stroke-linecap="round"
              />
              <path
                d="M155.249 103.291C156.746 113.231 156.046 123.313 155.249 133.285"
                stroke="#FFEC99"
                stroke-width="7"
                stroke-linecap="round"
              />
              <path
                d="M162.838 103.652C162.838 111.191 162.387 118.737 159.224 125.696"
                stroke="#FFEC99"
                stroke-width="7"
                stroke-linecap="round"
              />
              <path
                d="M201.866 101.484V119.914"
                stroke="#FFEC99"
                stroke-width="7"
                stroke-linecap="round"
              />
              <path
                d="M208.732 99.3157V118.83"
                stroke="#FFEC99"
                stroke-width="7"
                stroke-linecap="round"
              />
              <path
                d="M212.707 103.291C214.734 106.423 215.109 110.736 215.598 114.333C215.892 116.493 216.321 118.814 216.321 120.998"
                stroke="#FFEC99"
                stroke-width="7"
                stroke-linecap="round"
              />
              <path
                d="M71.7707 101.845C70.3256 108.414 67.9766 114.717 66.9925 121.36C66.6312 123.799 66.504 126.262 67.4342 128.587"
                stroke="#FFEC99"
                stroke-width="7"
                stroke-linecap="round"
              />
              <path
                d="M64.1818 104.014C62.829 110.891 59.924 116.851 60.9294 123.889"
                stroke="#FFEC99"
                stroke-width="7"
                stroke-linecap="round"
              />
              <path
                d="M61.6522 99.677C60.006 104.616 58.067 109.555 57.3358 114.734C56.9057 117.781 56.9543 120.823 56.9543 123.889"
                stroke="#FFEC99"
                stroke-width="7"
                stroke-linecap="round"
              />
              <path
                d="M18.287 101.845C14.948 108.384 13.737 114.983 12.1637 122.062C11.8096 123.656 11.7823 125.167 11.7823 126.78"
                stroke="#FFEC99"
                stroke-width="7"
                stroke-linecap="round"
              />
              <path
                d="M8.52989 103.652C6.88703 109.592 6.36163 115.594 6.36163 121.721"
                stroke="#FFEC99"
                stroke-width="7"
                stroke-linecap="round"
              />
              <path
                d="M15.0347 102.568C12.1507 106.553 8.89127 110.844 8.89127 115.939"
                stroke="#FFEC99"
                stroke-width="7"
                stroke-linecap="round"
              />
              <path
                d="M17.9257 106.182C18.6082 111.642 18.2149 117.855 19.7326 123.167"
                stroke="#FFEC99"
                stroke-width="7"
                stroke-linecap="round"
              />
              <path
                d="M86.5871 103.291C86.5871 107.501 86.4669 111.731 86.6072 115.939C86.6853 118.281 87.6713 120.491 87.6713 122.805"
                stroke="#F3D9FA"
                stroke-width="7"
                stroke-linecap="round"
              />
              <path
                d="M90.5623 107.989C92.08 113.192 92.8558 118.512 93.4533 123.889"
                stroke="#F3D9FA"
                stroke-width="7"
                stroke-linecap="round"
              />
              <path
                d="M96.3443 107.627C97.7578 114.355 99.009 121.116 100.319 127.864"
                stroke="#F3D9FA"
                stroke-width="7"
                stroke-linecap="round"
              />
              <path
                d="M103.572 107.266C103.693 111.996 104.656 116.622 104.656 121.36"
                stroke="#F3D9FA"
                stroke-width="7"
                stroke-linecap="round"
              />
              <path
                d="M100.319 102.207V108.711"
                stroke="#F3D9FA"
                stroke-width="7"
                stroke-linecap="round"
              />
              <path
                d="M95.6215 104.375C95.0315 106.789 94.4469 109.2 93.8147 111.602"
                stroke="#F3D9FA"
                stroke-width="7"
                stroke-linecap="round"
              />
              <path
                d="M47.9199 98.9543C47.7867 108.014 46.4744 116.976 46.4744 126.058"
                stroke="#F3D9FA"
                stroke-width="7"
                stroke-linecap="round"
              />
              <path
                d="M38.8855 103.652V127.142"
                stroke="#F3D9FA"
                stroke-width="7"
                stroke-linecap="round"
              />
              <path
                d="M31.658 104.014V125.696"
                stroke="#F3D9FA"
                stroke-width="7"
                stroke-linecap="round"
              />
              <path
                d="M29.8511 104.375C29.1476 108.596 28.4056 112.526 28.4056 116.842C28.4056 119.794 28.4056 122.745 28.4056 125.696"
                stroke="#F3D9FA"
                stroke-width="7"
                stroke-linecap="round"
              />
              <path
                d="M43.5834 101.484C43.1385 109.548 43.222 117.623 43.222 125.696"
                stroke="#F3D9FA"
                stroke-width="7"
                stroke-linecap="round"
              />
              <path
                d="M173.317 101.845C173.753 105.002 174.9 108.015 175.285 111.201C175.556 113.446 175.486 115.71 175.486 117.967C175.486 119.82 175.486 121.674 175.486 123.528"
                stroke="#F3D9FA"
                stroke-width="7"
                stroke-linecap="round"
              />
              <path
                d="M178.015 104.375C178.659 110.812 178.738 117.119 178.738 123.528"
                stroke="#F3D9FA"
                stroke-width="7"
                stroke-linecap="round"
              />
              <path
                d="M179.099 105.82C179.634 110.63 180.545 115.418 180.545 120.275"
                stroke="#F3D9FA"
                stroke-width="7"
                stroke-linecap="round"
              />
              <path
                d="M181.268 104.375C182.508 110.197 183.075 116.13 183.075 122.082"
                stroke="#F3D9FA"
                stroke-width="7"
                stroke-linecap="round"
              />
              <path
                d="M185.604 105.82C186.288 110.414 186.786 115.032 187.01 119.673C187.067 120.868 187.047 121.728 186.688 122.805"
                stroke="#F3D9FA"
                stroke-width="7"
                stroke-linecap="round"
              />
              <path
                d="M189.218 106.182C189.696 111.199 191.625 118.191 188.857 122.805"
                stroke="#F3D9FA"
                stroke-width="7"
                stroke-linecap="round"
              />
              <path
                d="M223.187 102.568V121.36"
                stroke="#F3D9FA"
                stroke-width="7"
                stroke-linecap="round"
              />
              <path
                d="M227.162 101.484V122.082"
                stroke="#F3D9FA"
                stroke-width="7"
                stroke-linecap="round"
              />
              <path
                d="M230.776 104.014V122.082"
                stroke="#F3D9FA"
                stroke-width="7"
                stroke-linecap="round"
              />
              <path
                d="M233.306 104.736C233.886 110.984 234.029 117.256 234.029 123.528"
                stroke="#F3D9FA"
                stroke-width="7"
                stroke-linecap="round"
              />
              <path
                d="M237.281 105.82C234.573 110.82 234.265 117.274 233.667 122.805"
                stroke="#F3D9FA"
                stroke-width="7"
                stroke-linecap="round"
              />
              <path
                d="M33.1035 101.845C36.2893 100.665 38.5928 97.9791 41.5757 96.4247C44.0477 95.1365 46.7225 93.6186 48.8635 91.8272C52.0595 89.1529 55.3497 87.1165 58.7612 84.7803C65.8418 79.9316 71.7349 74.4759 77.6732 68.3176C80.7934 65.0819 83.1151 60.7136 85.4829 56.9343C87.08 54.3851 88.9764 52.201 90.2009 49.4458"
                stroke="#F3D9FA"
                stroke-width="9"
                stroke-linecap="round"
              />
              <path
                d="M91.285 99.6771C92.1065 99.5906 92.6801 99.2211 93.3328 98.7134C95.8953 96.7204 98.2695 94.3567 100.601 92.1082C105.222 87.6508 109.091 82.6371 112.405 77.1513C114.922 72.9854 115.779 68.1944 118.047 63.961C119.6 61.0623 121.669 58.7571 122.725 55.5892"
                stroke="#F3D9FA"
                stroke-width="11"
                stroke-linecap="round"
              />
              <path
                d="M179.099 99.677C175.175 95.3597 171.003 91.2955 167.094 86.9486C162.247 81.5595 156.85 77.2729 153.161 70.9476C149.462 64.6065 145.066 58.9967 140.673 53.1398C138.862 50.7255 137.555 47.3843 137.18 44.3865"
                stroke="#F3D9FA"
                stroke-width="10"
                stroke-linecap="round"
              />
              <path
                d="M165.367 83.7765C161.63 79.4163 157.99 74.964 155.329 69.8434C151.592 62.6533 148.395 55.253 144.769 48.0003"
                stroke="#F3D9FA"
                stroke-width="10"
                stroke-linecap="round"
              />
              <path
                d="M177.654 97.8702C180.276 97.8702 182.789 99.4517 185.323 100.119C186.225 100.356 190.904 100.882 191.386 101.845"
                stroke="#F3D9FA"
                stroke-width="10"
                stroke-linecap="round"
              />
              <path
                d="M214.153 93.895C216.052 95.5232 218.765 96.0892 220.999 97.1474C222.601 97.9062 224.313 98.9084 226.078 99.2354C229.435 99.857 232.793 100.038 236.197 100.038C239.937 100.038 227.028 100.493 225.356 97.1474"
                stroke="#F3D9FA"
                stroke-width="8"
                stroke-linecap="round"
              />
              <path
                d="M2 102L3 166"
                stroke="inherit"
                stroke-width="5"
                stroke-linecap="round"
              />
              <path
                d="M244 99C244.348 120.949 244.653 140.164 245 162"
                stroke="inherit"
                stroke-width="5"
                stroke-linecap="round"
              />
              <path
                d="M2 99C13.7225 99 25.4148 89.6858 35.6872 84.601C50.5254 77.256 64.2426 68.1074 76.7021 56.6822C86.8928 47.3375 92.7178 33.3543 102.044 23.0478C104.483 20.3517 106.121 18.4127 108.049 15.4636C109.758 12.8477 109.469 9.47984 111 7"
                stroke="inherit"
                stroke-width="5"
                stroke-linecap="round"
              />
              <path
                d="M243 98C238.362 98 233.121 95.3596 228.778 94C215.772 89.9287 201.35 85.2784 189.667 78.2222C179.157 71.8745 168.238 64.2381 159.556 55.5556C149.881 45.881 140.688 35.5522 133 24.2222C131.029 21.3182 128.416 17.4789 127.222 14.2222C126.075 11.0934 125.875 7.81245 124 5"
                stroke="inherit"
                stroke-width="5"
                stroke-linecap="round"
              />
              <path
                d="M109 10C109 3.54452 119.682 -1.63627 123 5.00001"
                stroke="inherit"
                stroke-width="5"
                stroke-linecap="round"
              />
              <path
                d="M3 127L18.5 168L23.4757 127L44 172L52.8932 127L72 176L77.4078 127L98 176"
                stroke="inherit"
                stroke-width="3"
              />
              <path
                d="M147 167.5L170 125.009L173.5 174.819L197.783 125.009L204 172.64L222.688 122.83L230.5 167.5L243.608 121"
                stroke="inherit"
                stroke-width="3"
              />
              <path
                d="M96.442 178.177C97.2046 178.082 98.6529 173.987 99.1905 173.091C100.255 171.316 100.715 169.039 101.42 167.096C102.681 163.62 103.987 160.247 104.926 156.665C105.743 153.547 106.483 150.381 107.155 147.229C107.812 144.143 107.769 140.9 108.54 137.879C109.101 135.681 109.106 133.652 109.384 131.43C109.55 130.099 110.077 128.887 110.077 127.534"
                stroke="inherit"
                stroke-width="5"
                stroke-linecap="round"
              />
              <path
                d="M152 176C150.571 175.804 149.184 171.341 148.678 170.067C146.242 163.931 144.318 157.541 142.436 151.119C141.138 146.692 141.473 142.145 141.168 137.548C140.914 133.714 141.024 129.844 141.024 126"
                stroke="inherit"
                stroke-width="5"
                stroke-linecap="round"
              />
              <path
                d="M2 123C2.75827 123.232 3.62089 125.144 4.33333 126.017C5.7512 127.753 7.98271 128.296 9.53472 128.676C12.4124 129.381 15.4377 128.716 18.3333 128.716C19.809 128.716 21.9338 127.041 23 124.429"
                stroke="inherit"
                stroke-width="5"
                stroke-linecap="round"
              />
              <path
                d="M21.2574 128.703C22.2548 128.903 22.7164 130.048 23.7679 130.24C25.3423 130.526 26.9894 130.924 28.5941 131.019C31.3976 131.184 34.0952 131.43 36.9263 131.43C40.3576 131.43 43.7269 131.04 47.1413 131.04C48.8411 131.04 50.6056 129.559 52.0325 128.703"
                stroke="inherit"
                stroke-width="5"
                stroke-linecap="round"
              />
              <path
                d="M53.2011 128.314C53.2011 130.068 55.4336 130.862 56.837 131.257C60.123 132.181 63.5645 132.367 66.8356 133.075C68.1913 133.368 70.9668 133.918 72.2894 133.291C73.2618 132.831 73.8837 131.784 74.6268 131.04"
                stroke="inherit"
                stroke-width="5"
                stroke-linecap="round"
              />
              <path
                d="M77.7432 130.651C80.9559 130.972 84.1601 133.767 87.309 133.767C88.5931 133.767 89.8772 133.767 91.1613 133.767C92.4246 133.767 93.4412 132.926 94.6673 132.599C97.2382 131.913 99.6809 130.644 102.285 129.958C103.259 129.702 104.348 129.423 105.229 129.006C106.301 128.498 106.903 127.451 108.129 127.145"
                stroke="inherit"
                stroke-width="5"
                stroke-linecap="round"
              />
              <path
                d="M141 126.762C141.544 126.841 142.505 127.381 143.086 127.608C144.176 128.033 145.36 128.318 146.489 128.581C149.464 129.273 152.38 130.146 155.38 130.865C157.867 131.461 160.582 129.944 162.891 128.962C164.444 128.302 165.586 126.621 167 126"
                stroke="inherit"
                stroke-width="5"
                stroke-linecap="round"
              />
              <path
                d="M169 126.338C169.729 126.338 170.437 126.221 171 126.616C171.887 127.24 174.013 126.879 175.12 126.894C178.392 126.941 180.811 127.2 184.04 126.678C188.318 125.986 192.556 124.996 196 123"
                stroke="inherit"
                stroke-width="5"
                stroke-linecap="round"
              />
              <path
                d="M199.285 126.755C203.551 126.755 207.782 128.188 212.141 127.448C214.065 127.121 221.1 125.543 221.1 122.47"
                stroke="inherit"
                stroke-width="5"
                stroke-linecap="round"
              />
              <path
                d="M223.438 125.587C227.324 125.587 231.105 125.62 234.951 125.11C237.05 124.833 238.412 124.303 240.405 123.639C242.427 122.965 242.563 122.333 243.695 120.522"
                stroke="inherit"
                stroke-width="5"
                stroke-linecap="round"
              />
              <path
                d="M110.005 128.692C114.756 133.444 119.144 134.52 125.79 134.52C130.944 134.52 138.66 135.729 138.66 128.206"
                stroke="inherit"
                stroke-width="5"
                stroke-linecap="round"
              />
              <path d="M22 128.5V100.5" stroke="inherit" />
              <path d="M52 128V100" stroke="inherit" />
              <path d="M78 128V100" stroke="inherit" />
              <path d="M109 127V99" stroke="inherit" />
              <path d="M141 125V97" stroke="inherit" />
              <path d="M169 126V98" stroke="inherit" />
              <path d="M196 125V100" stroke="inherit" />
              <path d="M221 123V98" stroke="inherit" />
              <path
                d="M21.1243 102.465C22.9756 102.128 24.9039 100.63 26.6827 99.9286C29.5126 98.8126 32.3768 97.3894 35.0473 95.9351C47.2123 89.3107 59.0639 81.4785 69.4771 72.3524C76.9038 65.8436 83.7855 58.4705 89.6331 50.4965C92.0089 47.2567 94.8225 44.281 96.8644 40.8097C98.519 37.9968 100.861 36.0328 102.234 33.0118"
                stroke="inherit"
                stroke-width="5"
                stroke-linecap="round"
              />
              <path
                d="M51.7225 102.465C51.9831 99.8589 57.2422 97.7279 59.0348 96.124C65.6907 90.1688 71.7249 83.8835 77.6798 77.2362C81.8545 72.576 85.6363 67.4553 89.1204 62.2609C92.7556 56.8411 95.9606 50.7661 99.8055 45.6396"
                stroke="inherit"
                stroke-width="5"
                stroke-linecap="round"
              />
              <path
                d="M79.4067 102.465C79.5777 101.097 83.7311 98.1645 84.6953 97.2843C91.0786 91.456 96.4293 85.2394 101.37 78.1806C104.651 73.494 107.378 68.3895 109.627 63.1243C110.709 60.5925 112.433 57.7014 112.433 54.8677"
                stroke="inherit"
                stroke-width="5"
                stroke-linecap="round"
              />
              <path
                d="M110.005 99.0651C111.191 97.616 111.861 95.554 112.73 93.9114C114.485 90.5967 116.411 87.3452 118.235 84.0628C120.426 80.1176 122.313 76.0127 124.09 71.8667"
                stroke="inherit"
                stroke-width="5"
                stroke-linecap="round"
              />
              <path
                d="M139.632 97.1224C139.632 94.6726 138.592 92.497 137.095 90.5926C132.731 85.0381 129.324 78.5697 126.033 72.3524"
                stroke="inherit"
                stroke-width="5"
                stroke-linecap="round"
              />
              <path
                d="M169.259 99.5508C162.273 93.0018 155.255 86.7891 149.642 78.9631C146.707 74.8702 143.409 70.9174 140.927 66.5241C138.297 61.8699 136.37 56.859 134.289 51.9535"
                stroke="inherit"
                stroke-width="5"
                stroke-linecap="round"
              />
              <path
                d="M197.428 100.522C191.235 99.6775 184.739 94.2923 179.512 91.0513C173.198 87.1367 170.017 79.6981 166.83 73.3237"
                stroke="inherit"
                stroke-width="5"
                stroke-linecap="round"
              />
              <path
                d="M218.799 101.494C216.826 99.8799 213.998 99.8685 212.026 98.0937C209.7 96.0007 207.105 94.2886 204.714 92.2655"
                stroke="inherit"
                stroke-width="5"
                stroke-linecap="round"
              />
              <path
                d="M5.22156 163.726C5.22156 167.228 12.6238 169.259 15.0728 170.484C25.3715 175.633 35.7719 176.551 47.1096 176.956C64.1693 177.566 81.198 177.648 98.2789 177.648"
                stroke="inherit"
                stroke-width="5"
                stroke-linecap="round"
              />
              <path
                d="M152 175.873C160.329 175.873 168.658 175.873 176.986 175.873C187.232 175.873 197.68 176.578 207.69 174.666C214.575 173.352 221.108 172.294 227.848 170.746C235.053 169.091 239.144 165.475 245 162"
                stroke="inherit"
                stroke-width="5"
                stroke-linecap="round"
              />
            </svg>